/* XPM */
static char *cal[] = {
/* columns rows colors chars-per-pixel */
"12 12 2 1 ",
"  c #7F9F7F",
". c None",
/* pixels */
"............",
".. . . . ...",
". . . . . ..",
". ....... ..",
". ....... ..",
". . . . . ..",
". ....... ..",
". . . . . ..",
". ....... ..",
".         ..",
"............",
"............"
};
