/* XPM */
static char *down[] = {
/* columns rows colors chars-per-pixel */
"12 12 2 1 ",
"  c #CC9393",
". c None",
/* pixels */
"............",
"............",
".....    ...",
"....    ....",
"....    ....",
"....    ....",
"..        ..",
"...      ...",
"....    ....",
".....  .....",
"............",
"............"
};
